<svg version="1" xmlns="http://www.w3.org/2000/svg" width="933.333" height="933.333" viewBox="0 0 700.000000 700.000000"><path d="M233.7.7c-.3.5-.4 10.9-.4 23.3l.1 22.5-46 .2c-25.2 0-46.2.2-46.6.2-.5.1-.8 10.4-.8 23.1 0 12.6-.3 23-.7 23.1-.5 0-10.7.2-22.8.3-12.1.2-22.3.3-22.6.4-.3.1-.6 10-.7 21.9 0 12-.1 22.4-.1 23-.1 1-5.4 1.3-23 1.3-21 0-22.9.1-23.3 1.7-.2 1-.3 32.4-.3 69.8l.1 68 23.5.3 23.4.2-.1 46.4c-.1 41.8.1 46.5 1.5 46.8.9.2 11.4.3 23.4.3l21.7-.1V420H93.3l.1 23.4v23.4l23.3-.2 23.3-.1v47l22.2-.1c12.3 0 22.8.1 23.4.3.7.3 1.1 7.8 1 23.3v23H140l-.2 23.2-.3 23.3h-22.2c-12.2.1-22.6.4-23 .9-.4.4-.8 10.3-.9 22.1 0 11.7-.3 21.9-.6 22.6-.4 1.1-4.8 1.4-23.2 1.3-22.3-.1-22.6-.1-22.7 2 0 1.2-.1 11.5-.2 23.1l-.1 21 280 .3 280.1.2V560H560v-46.7l-21.2-.1c-11.7 0-22.2 0-23.4-.1-2.1-.1-2.1-.4-2.1-23.1 0-22.6.1-23 2.1-23.1 1.2 0 11.7-.1 23.4-.2H560v-62.2h-77.5l-.1-22.2c-.1-12.3-.4-22.9-.7-23.5-.4-1.1-14.7-1.5-28.9-.9-1.7.1-1.8 1.9-1.8 23.4v23.2H342.2l.1-22.8c0-12.5-.3-23-.6-23.4-.5-.5-48.3-.8-59.9-.4-1.6.1-1.8 1.5-1.8 15.6V389h-46.6v-31c-.1-27.6.1-31 1.5-31.1.9 0 25.3-.1 54.4-.1 47.4-.1 52.7-.3 52.8-1.7 0-.9.1-7.9.1-15.6l-.1-14h108.4l.3 15.6.2 15.6h31l.1-3.1c0-1.7.1-8.6.1-15.3 0-8.4.3-12.3 1.1-12.5.7-.2 18.2-.4 39-.3H560V280h46.7l.1-22.3c0-12.2.1-22.7.1-23.3.1-.7 7.3-1 23.1-1 19.8.1 23-.1 23.1-1.4 0-.8.1-21.9.2-46.7l.2-45.3-23.4-.2-23.4-.3-.1-23-.1-23H560v-47l-46.5.1c-41.8.1-46.5-.1-46.6-1.5 0-.9-.1-11.4-.1-23.4L466.7 0H350.4c-63.9 0-116.5.3-116.7.7z"/><path d="M374.1 327.5c-1.3 1.7-1 45.5.3 45.6 4.2.3 42.4.4 43.9 0 1.6-.3 1.7-2.2 1.7-23.5v-23.1h-22.6c-13.9 0-22.9.4-23.3 1zM513.8 326.5s-.2 10.5-.3 23.2c-.2 23.1-.2 23.3 1.9 23.4 6.6.3 42.3.4 43.4.1.9-.3 1.2-5.9 1.2-23.6v-23.1h-46.2z"/></svg>